<svg xmlns="http://www.w3.org/2000/svg" version="1.1" xmlns:xlink="http://www.w3.org/1999/xlink" xmlns:svgjs="http://svgjs.com/svgjs" width="1000" height="1000"><rect width="1000" height="1000" rx="350" ry="350" fill="#ffffff"></rect><g transform="matrix(18.75,0,0,18.75,262.82481074126554,206.8989088602466)"><svg xmlns="http://www.w3.org/2000/svg" version="1.1" xmlns:xlink="http://www.w3.org/1999/xlink" xmlns:svgjs="http://svgjs.com/svgjs" width="26" height="32"><svg width="26" height="32" viewBox="0 0 26 32" fill="none" xmlns="http://www.w3.org/2000/svg">
<g clip-path="url(#clip0_0_3)">
<path d="M23.1496 16.5628C23.1466 16.5428 25.2596 6.27284 25.2596 6.27284V6.17284C25.2606 6.04784 25.1786 5.93784 25.0596 5.90284L24.8596 5.84284L14.2496 5.91284H14.5896H5.58957L5.41957 6.33284C6.11857 6.32984 6.79357 6.58184 7.31957 7.04284C7.80157 7.55884 8.05657 8.24684 8.02957 8.95284C8.04357 9.41884 8.00357 9.88484 7.90957 10.3428L4.23957 26.0228C4.06257 26.7918 3.75457 27.5258 3.32957 28.1928C2.98357 28.7388 2.56357 29.2338 2.07957 29.6628C1.69757 30.0068 1.26157 30.2878 0.789567 30.4928C0.570567 30.6028 0.338567 30.6868 0.099567 30.7428L-0.000432968 31.2228H18.7496C18.8706 31.2238 18.9886 31.1888 19.0896 31.1228C19.2876 31.0408 19.4426 30.8818 19.5196 30.6828L23.0496 19.8228C23.0826 19.7258 23.0996 19.6248 23.0996 19.5228C23.0996 19.4528 23.0996 19.4228 23.0496 19.4228C22.9996 19.4228 22.7496 19.5828 22.5696 19.9228C22.3896 20.2628 22.1396 20.6228 21.7296 21.2228C21.3196 21.8228 20.8296 22.5128 20.2496 23.2828C19.6696 24.0528 18.9996 24.8228 18.3196 25.6528C17.6356 26.4458 16.9046 27.1968 16.1296 27.9028C15.4296 28.5418 14.6616 29.1018 13.8396 29.5728C13.1856 29.9768 12.4376 30.2048 11.6696 30.2328C11.3056 30.2648 10.9526 30.0958 10.7496 29.7928C10.5586 29.4578 10.4656 29.0768 10.4796 28.6928C10.4756 28.3558 10.5126 28.0198 10.5896 27.6928L12.7996 18.2628H13.4196C13.9616 18.2458 14.4926 18.4118 14.9296 18.7328C15.3466 19.0418 15.6886 19.4418 15.9296 19.9028C16.1796 20.3798 16.3556 20.8918 16.4496 21.4228C16.5526 21.9128 16.6056 22.4118 16.6096 22.9128C16.6216 23.2478 16.5916 23.5838 16.5196 23.9128H16.9496L19.7196 12.1128H19.4096C19.2486 12.6078 19.0346 13.0838 18.7696 13.5328C18.4126 14.1588 17.9906 14.7448 17.5096 15.2828C16.9856 15.8478 16.3866 16.3388 15.7296 16.7428C15.1096 17.1518 14.3826 17.3708 13.6396 17.3728H12.9996L15.2596 7.49284C15.4996 6.49284 17.6696 6.65284 17.6696 6.65284C18.1596 6.69184 18.6246 6.88484 18.9996 7.20284C19.4966 7.58884 19.9256 8.05484 20.2696 8.58284C20.6596 9.18784 20.9946 9.82684 21.2696 10.4928C21.5776 11.1798 21.8446 11.8838 22.0696 12.6028C22.2836 13.2588 22.4606 13.9258 22.5996 14.6028C22.7036 15.1108 22.7736 15.6248 22.8096 16.1428C22.8096 16.4828 22.8896 16.6428 23.0096 16.6428C23.0656 16.6358 23.1156 16.6068 23.1496 16.5628Z" fill="black"></path>
<path d="M20.3766 -0.000162125H15.8666L14.5966 5.56984H15.9466L20.3766 -0.000162125Z" fill="black"></path>
</g>
<defs>
<clipPath id="clip0_0_3">
<rect width="25.26" height="31.223" fill="white"></rect>
</clipPath>
</defs>
</svg></svg></g></svg>